<svg xmlns="http://www.w3.org/2000/svg" xmlns:xlink="http://www.w3.org/1999/xlink" width="500" zoomAndPan="magnify" viewBox="0 0 375 374.999991" height="500" preserveAspectRatio="xMidYMid meet" version="1.0"><defs><g/></defs><rect x="-37.5" width="450" fill="#ffffff" y="-37.499999" height="449.999989" fill-opacity="1"/><rect x="-37.5" width="450" fill="#000000" y="-37.499999" height="449.999989" fill-opacity="1"/><g fill="#ffffff" fill-opacity="1"><g transform="translate(39.468134, 177.149974)"><g><path d="M 2.625 0 L 2.625 -34.96875 L 19.921875 -34.96875 C 23.773438 -34.96875 26.882812 -34.332031 29.25 -33.0625 C 31.625 -31.789062 33.359375 -29.945312 34.453125 -27.53125 C 35.546875 -25.125 36.09375 -22.195312 36.09375 -18.75 L 36.09375 -16.171875 C 36.09375 -12.785156 35.550781 -9.882812 34.46875 -7.46875 C 33.394531 -5.0625 31.679688 -3.210938 29.328125 -1.921875 C 26.972656 -0.640625 23.851562 0 19.96875 0 Z M 14.71875 -8.6875 L 18.140625 -8.6875 C 19.992188 -8.6875 21.421875 -9.15625 22.421875 -10.09375 C 23.421875 -11.039062 23.921875 -12.738281 23.921875 -15.1875 L 23.921875 -19.78125 C 23.921875 -22.226562 23.421875 -23.921875 22.421875 -24.859375 C 21.421875 -25.796875 19.992188 -26.265625 18.140625 -26.265625 L 14.71875 -26.265625 Z M 14.71875 -8.6875 "/></g></g></g><g fill="#ffffff" fill-opacity="1"><g transform="translate(73.912857, 177.149974)"><g><path d="M 2.625 0 L 2.625 -34.96875 L 29.5625 -34.96875 L 29.5625 -26.3125 L 14.71875 -26.3125 L 14.71875 -21.4375 L 28.015625 -21.4375 L 28.015625 -13.953125 L 14.71875 -13.953125 L 14.71875 -8.734375 L 29.9375 -8.734375 L 29.9375 0 Z M 2.625 0 "/></g></g></g><g fill="#ffffff" fill-opacity="1"><g transform="translate(102.060629, 177.149974)"><g><path d="M 2.625 0 L 2.625 -34.96875 L 19.921875 -34.96875 C 23.773438 -34.96875 26.882812 -34.332031 29.25 -33.0625 C 31.625 -31.789062 33.359375 -29.945312 34.453125 -27.53125 C 35.546875 -25.125 36.09375 -22.195312 36.09375 -18.75 L 36.09375 -16.171875 C 36.09375 -12.785156 35.550781 -9.882812 34.46875 -7.46875 C 33.394531 -5.0625 31.679688 -3.210938 29.328125 -1.921875 C 26.972656 -0.640625 23.851562 0 19.96875 0 Z M 14.71875 -8.6875 L 18.140625 -8.6875 C 19.992188 -8.6875 21.421875 -9.15625 22.421875 -10.09375 C 23.421875 -11.039062 23.921875 -12.738281 23.921875 -15.1875 L 23.921875 -19.78125 C 23.921875 -22.226562 23.421875 -23.921875 22.421875 -24.859375 C 21.421875 -25.796875 19.992188 -26.265625 18.140625 -26.265625 L 14.71875 -26.265625 Z M 14.71875 -8.6875 "/></g></g></g><g fill="#ffffff" fill-opacity="1"><g transform="translate(136.505351, 177.149974)"><g><path d="M 18.515625 0.890625 C 14.503906 0.890625 11.289062 0.34375 8.875 -0.75 C 6.46875 -1.84375 4.726562 -3.523438 3.65625 -5.796875 C 2.59375 -8.078125 2.0625 -10.9375 2.0625 -14.375 L 2.0625 -34.96875 L 14.140625 -34.96875 L 14.140625 -13.859375 C 14.140625 -10.316406 15.613281 -8.546875 18.5625 -8.546875 C 21.476562 -8.546875 22.9375 -10.300781 22.9375 -13.8125 L 22.9375 -34.96875 L 35.015625 -34.96875 L 35.015625 -14.375 C 35.015625 -10.96875 34.488281 -8.132812 33.4375 -5.875 C 32.382812 -3.613281 30.660156 -1.921875 28.265625 -0.796875 C 25.867188 0.328125 22.617188 0.890625 18.515625 0.890625 Z M 18.515625 0.890625 "/></g></g></g><g fill="#ffffff" fill-opacity="1"><g transform="translate(170.527146, 177.149974)"><g><path d="M 18.46875 0.890625 C 12.988281 0.890625 8.773438 -0.546875 5.828125 -3.421875 C 2.878906 -6.304688 1.40625 -10.492188 1.40625 -15.984375 L 1.40625 -18.84375 C 1.40625 -24.394531 2.867188 -28.601562 5.796875 -31.46875 C 8.734375 -34.332031 12.957031 -35.765625 18.46875 -35.765625 C 23.957031 -35.765625 28.140625 -34.476562 31.015625 -31.90625 C 33.898438 -29.34375 35.375 -25.804688 35.4375 -21.296875 L 35.4375 -20.390625 L 23.5 -20.390625 L 23.5 -21.203125 C 23.40625 -22.828125 22.953125 -24.09375 22.140625 -25 C 21.328125 -25.90625 20.132812 -26.359375 18.5625 -26.359375 C 16.96875 -26.359375 15.738281 -25.8125 14.875 -24.71875 C 14.007812 -23.625 13.578125 -21.960938 13.578125 -19.734375 L 13.578125 -15.1875 C 13.578125 -12.957031 14.007812 -11.285156 14.875 -10.171875 C 15.738281 -9.054688 16.96875 -8.5 18.5625 -8.5 C 20.039062 -8.5 21.21875 -8.898438 22.09375 -9.703125 C 22.96875 -10.503906 23.4375 -11.765625 23.5 -13.484375 L 23.5 -14.375 L 35.4375 -14.375 L 35.4375 -13.53125 C 35.34375 -9.050781 33.878906 -5.523438 31.046875 -2.953125 C 28.210938 -0.390625 24.019531 0.890625 18.46875 0.890625 Z M 18.46875 0.890625 "/></g></g></g><g fill="#ffffff" fill-opacity="1"><g transform="translate(204.173003, 177.149974)"><g><path d="M 9.125 0 L 9.125 -26.125 L 0.375 -26.125 L 0.375 -34.96875 L 29.984375 -34.96875 L 29.984375 -26.125 L 21.203125 -26.125 L 21.203125 0 Z M 9.125 0 "/></g></g></g><g fill="#ffffff" fill-opacity="1"><g transform="translate(231.521908, 177.149974)"><g><path d="M 2.625 0 L 2.625 -34.96875 L 14.71875 -34.96875 L 14.71875 0 Z M 2.625 0 "/></g></g></g><g fill="#ffffff" fill-opacity="1"><g transform="translate(245.853984, 177.149974)"><g><path d="M 2.625 0 L 2.625 -34.96875 L 20.6875 -34.96875 C 24.46875 -34.96875 27.488281 -34.289062 29.75 -32.9375 C 32.007812 -31.59375 33.140625 -29.46875 33.140625 -26.5625 L 33.140625 -26.40625 C 33.140625 -24.5625 32.660156 -22.957031 31.703125 -21.59375 C 30.742188 -20.226562 29.171875 -19.234375 26.984375 -18.609375 L 26.984375 -18.5625 C 29.453125 -18.15625 31.34375 -17.226562 32.65625 -15.78125 C 33.976562 -14.34375 34.640625 -12.515625 34.640625 -10.296875 L 34.640625 -10.109375 C 34.640625 -7.785156 34.082031 -5.878906 32.96875 -4.390625 C 31.851562 -2.898438 30.289062 -1.796875 28.28125 -1.078125 C 26.28125 -0.359375 23.9375 0 21.25 0 Z M 14.328125 -8.125 L 18.984375 -8.125 C 20.304688 -8.125 21.265625 -8.382812 21.859375 -8.90625 C 22.453125 -9.425781 22.75 -10.21875 22.75 -11.28125 C 22.75 -13.34375 21.429688 -14.375 18.796875 -14.375 L 14.328125 -14.375 Z M 14.328125 -21.203125 L 18.796875 -21.203125 C 20.023438 -21.203125 20.910156 -21.441406 21.453125 -21.921875 C 22.003906 -22.410156 22.28125 -23.140625 22.28125 -24.109375 C 22.28125 -25.015625 22.019531 -25.695312 21.5 -26.15625 C 20.988281 -26.613281 20.132812 -26.84375 18.9375 -26.84375 L 14.328125 -26.84375 Z M 14.328125 -21.203125 "/></g></g></g><g fill="#ffffff" fill-opacity="1"><g transform="translate(278.700998, 177.149974)"><g><path d="M 2.625 0 L 2.625 -34.96875 L 14.71875 -34.96875 L 14.71875 -8.84375 L 27.875 -8.84375 L 27.875 0 Z M 2.625 0 "/></g></g></g><g fill="#ffffff" fill-opacity="1"><g transform="translate(304.358193, 177.149974)"><g><path d="M 2.625 0 L 2.625 -34.96875 L 29.5625 -34.96875 L 29.5625 -26.3125 L 14.71875 -26.3125 L 14.71875 -21.4375 L 28.015625 -21.4375 L 28.015625 -13.953125 L 14.71875 -13.953125 L 14.71875 -8.734375 L 29.9375 -8.734375 L 29.9375 0 Z M 2.625 0 "/></g></g></g><g fill="#ffffff" fill-opacity="1"><g transform="translate(137.518909, 130.519357)"><g><path d="M 9.125 0 L 9.125 -26.125 L 0.375 -26.125 L 0.375 -34.96875 L 29.984375 -34.96875 L 29.984375 -26.125 L 21.203125 -26.125 L 21.203125 0 Z M 9.125 0 "/></g></g></g><g fill="#ffffff" fill-opacity="1"><g transform="translate(164.867814, 130.519357)"><g><path d="M 0.28125 0 L 10.8125 -34.96875 L 27.5 -34.96875 L 38.15625 0 L 25.46875 0 L 24.0625 -5.734375 L 14.328125 -5.734375 L 12.921875 0 Z M 16.265625 -13.578125 L 22.140625 -13.578125 L 20.203125 -21.53125 L 19.265625 -26.65625 L 19.171875 -26.65625 L 18.234375 -21.53125 Z M 16.265625 -13.578125 "/></g></g></g><g fill="#ffffff" fill-opacity="1"><g transform="translate(200.252372, 130.519357)"><g><path d="M 0.28125 0 L 9.078125 -17.8125 L 1.125 -34.96875 L 14.328125 -34.96875 L 17.90625 -24.953125 L 18.609375 -22.609375 L 18.65625 -22.609375 L 19.40625 -24.953125 L 22.9375 -34.96875 L 36.140625 -34.96875 L 28.203125 -17.859375 L 36.9375 0 L 23.734375 0 L 19.40625 -10.765625 L 18.609375 -13.15625 L 17.765625 -10.71875 L 13.53125 0 Z M 0.28125 0 "/></g></g></g><g fill="#ffffff" fill-opacity="1"><g transform="translate(93.034537, 223.721954)"><g><path d="M 18.46875 0.890625 C 12.988281 0.890625 8.773438 -0.546875 5.828125 -3.421875 C 2.878906 -6.304688 1.40625 -10.492188 1.40625 -15.984375 L 1.40625 -18.84375 C 1.40625 -24.394531 2.867188 -28.601562 5.796875 -31.46875 C 8.734375 -34.332031 12.957031 -35.765625 18.46875 -35.765625 C 23.957031 -35.765625 28.140625 -34.476562 31.015625 -31.90625 C 33.898438 -29.34375 35.375 -25.804688 35.4375 -21.296875 L 35.4375 -20.390625 L 23.5 -20.390625 L 23.5 -21.203125 C 23.40625 -22.828125 22.953125 -24.09375 22.140625 -25 C 21.328125 -25.90625 20.132812 -26.359375 18.5625 -26.359375 C 16.96875 -26.359375 15.738281 -25.8125 14.875 -24.71875 C 14.007812 -23.625 13.578125 -21.960938 13.578125 -19.734375 L 13.578125 -15.1875 C 13.578125 -12.957031 14.007812 -11.285156 14.875 -10.171875 C 15.738281 -9.054688 16.96875 -8.5 18.5625 -8.5 C 20.039062 -8.5 21.21875 -8.898438 22.09375 -9.703125 C 22.96875 -10.503906 23.4375 -11.765625 23.5 -13.484375 L 23.5 -14.375 L 35.4375 -14.375 L 35.4375 -13.53125 C 35.34375 -9.050781 33.878906 -5.523438 31.046875 -2.953125 C 28.210938 -0.390625 24.019531 0.890625 18.46875 0.890625 Z M 18.46875 0.890625 "/></g></g></g><g fill="#ffffff" fill-opacity="1"><g transform="translate(126.680393, 223.721954)"><g><path d="M 2.625 0 L 2.625 -34.96875 L 20.203125 -34.96875 C 25.347656 -34.96875 29.054688 -34.007812 31.328125 -32.09375 C 33.597656 -30.1875 34.734375 -27.570312 34.734375 -24.25 L 34.734375 -23.96875 C 34.734375 -21.71875 34.191406 -19.816406 33.109375 -18.265625 C 32.023438 -16.710938 30.453125 -15.671875 28.390625 -15.140625 L 28.390625 -15.09375 C 30.171875 -14.644531 31.484375 -13.753906 32.328125 -12.421875 C 33.179688 -11.097656 33.6875 -9.320312 33.84375 -7.09375 L 34.078125 -4.515625 C 34.265625 -2.753906 34.625 -1.25 35.15625 0 L 23.171875 0 C 22.859375 -1 22.5625 -2.769531 22.28125 -5.3125 L 22 -7.46875 C 21.875 -8.570312 21.488281 -9.40625 20.84375 -9.96875 C 20.195312 -10.53125 19.15625 -10.8125 17.71875 -10.8125 L 14.71875 -10.8125 L 14.71875 0 Z M 14.71875 -18.5625 L 18.84375 -18.5625 C 20.039062 -18.5625 20.984375 -18.859375 21.671875 -19.453125 C 22.359375 -20.046875 22.703125 -21.050781 22.703125 -22.46875 L 22.703125 -22.84375 C 22.703125 -25.21875 21.476562 -26.40625 19.03125 -26.40625 L 14.71875 -26.40625 Z M 14.71875 -18.5625 "/></g></g></g><g fill="#ffffff" fill-opacity="1"><g transform="translate(159.480394, 223.721954)"><g><path d="M 18.703125 0.890625 C 13.066406 0.890625 8.773438 -0.546875 5.828125 -3.421875 C 2.878906 -6.304688 1.40625 -10.492188 1.40625 -15.984375 L 1.40625 -18.9375 C 1.40625 -24.457031 2.882812 -28.640625 5.84375 -31.484375 C 8.8125 -34.335938 13.082031 -35.765625 18.65625 -35.765625 C 24.300781 -35.765625 28.601562 -34.335938 31.5625 -31.484375 C 34.519531 -28.640625 36 -24.457031 36 -18.9375 L 36 -15.984375 C 36 -10.492188 34.519531 -6.304688 31.5625 -3.421875 C 28.601562 -0.546875 24.316406 0.890625 18.703125 0.890625 Z M 13.578125 -15.140625 C 13.578125 -10.742188 15.285156 -8.546875 18.703125 -8.546875 C 22.085938 -8.546875 23.78125 -10.742188 23.78125 -15.140625 L 23.78125 -19.734375 C 23.78125 -24.117188 22.085938 -26.3125 18.703125 -26.3125 C 15.285156 -26.3125 13.578125 -24.117188 13.578125 -19.734375 Z M 13.578125 -15.140625 "/></g></g></g><g fill="#ffffff" fill-opacity="1"><g transform="translate(193.831127, 223.721954)"><g><path d="M 8.125 0 L 0.28125 -34.96875 L 12.265625 -34.96875 L 15.9375 -13.015625 L 16.40625 -9.125 L 16.5 -9.125 L 17.0625 -13.015625 L 20.6875 -34.96875 L 33.046875 -34.96875 L 36.609375 -13.015625 L 37.171875 -9.125 L 37.265625 -9.125 L 37.734375 -13.015625 L 41.40625 -34.96875 L 53.390625 -34.96875 L 45.546875 0 L 30.6875 0 L 27.359375 -21.25 L 26.890625 -24.578125 L 26.796875 -24.578125 L 26.3125 -21.25 L 23.03125 0 Z M 8.125 0 "/></g></g></g><g fill="#ffffff" fill-opacity="1"><g transform="translate(244.488132, 223.721954)"><g><path d="M 2.625 0 L 2.625 -34.96875 L 19.921875 -34.96875 C 23.773438 -34.96875 26.882812 -34.332031 29.25 -33.0625 C 31.625 -31.789062 33.359375 -29.945312 34.453125 -27.53125 C 35.546875 -25.125 36.09375 -22.195312 36.09375 -18.75 L 36.09375 -16.171875 C 36.09375 -12.785156 35.550781 -9.882812 34.46875 -7.46875 C 33.394531 -5.0625 31.679688 -3.210938 29.328125 -1.921875 C 26.972656 -0.640625 23.851562 0 19.96875 0 Z M 14.71875 -8.6875 L 18.140625 -8.6875 C 19.992188 -8.6875 21.421875 -9.15625 22.421875 -10.09375 C 23.421875 -11.039062 23.921875 -12.738281 23.921875 -15.1875 L 23.921875 -19.78125 C 23.921875 -22.226562 23.421875 -23.921875 22.421875 -24.859375 C 21.421875 -25.796875 19.992188 -26.265625 18.140625 -26.265625 L 14.71875 -26.265625 Z M 14.71875 -8.6875 "/></g></g></g><g fill="#ffffff" fill-opacity="1"><g transform="translate(72.382718, 270.468981)"><g><path d="M 2.625 0 L 2.625 -34.96875 L 29.1875 -34.96875 L 29.1875 -26.265625 L 14.71875 -26.265625 L 14.71875 -20.734375 L 27.546875 -20.734375 L 27.546875 -12.265625 L 14.71875 -12.265625 L 14.71875 0 Z M 2.625 0 "/></g></g></g><g fill="#ffffff" fill-opacity="1"><g transform="translate(99.261706, 270.468981)"><g><path d="M 18.515625 0.890625 C 14.503906 0.890625 11.289062 0.34375 8.875 -0.75 C 6.46875 -1.84375 4.726562 -3.523438 3.65625 -5.796875 C 2.59375 -8.078125 2.0625 -10.9375 2.0625 -14.375 L 2.0625 -34.96875 L 14.140625 -34.96875 L 14.140625 -13.859375 C 14.140625 -10.316406 15.613281 -8.546875 18.5625 -8.546875 C 21.476562 -8.546875 22.9375 -10.300781 22.9375 -13.8125 L 22.9375 -34.96875 L 35.015625 -34.96875 L 35.015625 -14.375 C 35.015625 -10.96875 34.488281 -8.132812 33.4375 -5.875 C 32.382812 -3.613281 30.660156 -1.921875 28.265625 -0.796875 C 25.867188 0.328125 22.617188 0.890625 18.515625 0.890625 Z M 18.515625 0.890625 "/></g></g></g><g fill="#ffffff" fill-opacity="1"><g transform="translate(133.283501, 270.468981)"><g><path d="M 2.625 0 L 2.625 -34.96875 L 15.703125 -34.96875 L 24.296875 -18.65625 L 25.703125 -15.46875 L 25.65625 -19.265625 L 25.65625 -34.96875 L 36.796875 -34.96875 L 36.796875 0 L 23.6875 0 L 15.140625 -16.3125 L 13.71875 -19.5 L 13.71875 0 Z M 2.625 0 "/></g></g></g><g fill="#ffffff" fill-opacity="1"><g transform="translate(169.701895, 270.468981)"><g><path d="M 2.625 0 L 2.625 -34.96875 L 19.921875 -34.96875 C 23.773438 -34.96875 26.882812 -34.332031 29.25 -33.0625 C 31.625 -31.789062 33.359375 -29.945312 34.453125 -27.53125 C 35.546875 -25.125 36.09375 -22.195312 36.09375 -18.75 L 36.09375 -16.171875 C 36.09375 -12.785156 35.550781 -9.882812 34.46875 -7.46875 C 33.394531 -5.0625 31.679688 -3.210938 29.328125 -1.921875 C 26.972656 -0.640625 23.851562 0 19.96875 0 Z M 14.71875 -8.6875 L 18.140625 -8.6875 C 19.992188 -8.6875 21.421875 -9.15625 22.421875 -10.09375 C 23.421875 -11.039062 23.921875 -12.738281 23.921875 -15.1875 L 23.921875 -19.78125 C 23.921875 -22.226562 23.421875 -23.921875 22.421875 -24.859375 C 21.421875 -25.796875 19.992188 -26.265625 18.140625 -26.265625 L 14.71875 -26.265625 Z M 14.71875 -8.6875 "/></g></g></g><g fill="#ffffff" fill-opacity="1"><g transform="translate(204.146617, 270.468981)"><g><path d="M 2.625 0 L 2.625 -34.96875 L 14.71875 -34.96875 L 14.71875 0 Z M 2.625 0 "/></g></g></g><g fill="#ffffff" fill-opacity="1"><g transform="translate(218.478705, 270.468981)"><g><path d="M 2.625 0 L 2.625 -34.96875 L 15.703125 -34.96875 L 24.296875 -18.65625 L 25.703125 -15.46875 L 25.65625 -19.265625 L 25.65625 -34.96875 L 36.796875 -34.96875 L 36.796875 0 L 23.6875 0 L 15.140625 -16.3125 L 13.71875 -19.5 L 13.71875 0 Z M 2.625 0 "/></g></g></g><g fill="#ffffff" fill-opacity="1"><g transform="translate(254.897098, 270.468981)"><g><path d="M 18.5625 0.890625 C 13.050781 0.890625 8.8125 -0.546875 5.84375 -3.421875 C 2.882812 -6.304688 1.40625 -10.507812 1.40625 -16.03125 L 1.40625 -18.84375 C 1.40625 -24.363281 2.878906 -28.5625 5.828125 -31.4375 C 8.773438 -34.320312 13.019531 -35.765625 18.5625 -35.765625 C 23.894531 -35.765625 28.023438 -34.523438 30.953125 -32.046875 C 33.878906 -29.578125 35.34375 -26.164062 35.34375 -21.8125 L 35.34375 -21.625 L 23.40625 -21.625 L 23.40625 -22.046875 C 23.40625 -23.421875 22.972656 -24.53125 22.109375 -25.375 C 21.253906 -26.226562 20.054688 -26.65625 18.515625 -26.65625 C 16.953125 -26.65625 15.722656 -26.097656 14.828125 -24.984375 C 13.929688 -23.867188 13.484375 -22.179688 13.484375 -19.921875 L 13.484375 -14.8125 C 13.484375 -10.070312 15.222656 -7.703125 18.703125 -7.703125 C 20.117188 -7.703125 21.25 -8.046875 22.09375 -8.734375 C 22.9375 -9.429688 23.4375 -10.40625 23.59375 -11.65625 L 23.59375 -11.75 L 18.09375 -11.75 L 18.09375 -18.84375 L 35.390625 -18.84375 L 35.390625 -17.25 C 35.390625 -10.820312 33.988281 -6.191406 31.1875 -3.359375 C 28.382812 -0.523438 24.175781 0.890625 18.5625 0.890625 Z M 18.5625 0.890625 "/></g></g></g><g fill="#ffffff" fill-opacity="1"><g transform="translate(10.894441, 317.071942)"><g><path d="M 18.703125 0.890625 C 13.066406 0.890625 8.773438 -0.546875 5.828125 -3.421875 C 2.878906 -6.304688 1.40625 -10.492188 1.40625 -15.984375 L 1.40625 -18.9375 C 1.40625 -24.457031 2.882812 -28.640625 5.84375 -31.484375 C 8.8125 -34.335938 13.082031 -35.765625 18.65625 -35.765625 C 24.300781 -35.765625 28.601562 -34.335938 31.5625 -31.484375 C 34.519531 -28.640625 36 -24.457031 36 -18.9375 L 36 -15.984375 C 36 -10.492188 34.519531 -6.304688 31.5625 -3.421875 C 28.601562 -0.546875 24.316406 0.890625 18.703125 0.890625 Z M 13.578125 -15.140625 C 13.578125 -10.742188 15.285156 -8.546875 18.703125 -8.546875 C 22.085938 -8.546875 23.78125 -10.742188 23.78125 -15.140625 L 23.78125 -19.734375 C 23.78125 -24.117188 22.085938 -26.3125 18.703125 -26.3125 C 15.285156 -26.3125 13.578125 -24.117188 13.578125 -19.734375 Z M 13.578125 -15.140625 "/></g></g></g><g fill="#ffffff" fill-opacity="1"><g transform="translate(45.245173, 317.071942)"><g><path d="M 2.625 0 L 2.625 -34.96875 L 20.734375 -34.96875 C 25.023438 -34.96875 28.429688 -33.894531 30.953125 -31.75 C 33.472656 -29.601562 34.734375 -26.414062 34.734375 -22.1875 L 34.734375 -21.71875 C 34.734375 -17.394531 33.519531 -14.101562 31.09375 -11.84375 C 28.664062 -9.582031 25.398438 -8.453125 21.296875 -8.453125 L 14.71875 -8.453125 L 14.71875 0 Z M 14.71875 -17.25 L 18.796875 -17.25 C 20.054688 -17.25 21.03125 -17.578125 21.71875 -18.234375 C 22.40625 -18.890625 22.75 -20.019531 22.75 -21.625 L 22.75 -21.953125 C 22.75 -24.734375 21.445312 -26.125 18.84375 -26.125 L 14.71875 -26.125 Z M 14.71875 -17.25 "/></g></g></g><g fill="#ffffff" fill-opacity="1"><g transform="translate(77.575246, 317.071942)"><g><path d="M 2.625 0 L 2.625 -34.96875 L 20.734375 -34.96875 C 25.023438 -34.96875 28.429688 -33.894531 30.953125 -31.75 C 33.472656 -29.601562 34.734375 -26.414062 34.734375 -22.1875 L 34.734375 -21.71875 C 34.734375 -17.394531 33.519531 -14.101562 31.09375 -11.84375 C 28.664062 -9.582031 25.398438 -8.453125 21.296875 -8.453125 L 14.71875 -8.453125 L 14.71875 0 Z M 14.71875 -17.25 L 18.796875 -17.25 C 20.054688 -17.25 21.03125 -17.578125 21.71875 -18.234375 C 22.40625 -18.890625 22.75 -20.019531 22.75 -21.625 L 22.75 -21.953125 C 22.75 -24.734375 21.445312 -26.125 18.84375 -26.125 L 14.71875 -26.125 Z M 14.71875 -17.25 "/></g></g></g><g fill="#ffffff" fill-opacity="1"><g transform="translate(109.905318, 317.071942)"><g><path d="M 18.703125 0.890625 C 13.066406 0.890625 8.773438 -0.546875 5.828125 -3.421875 C 2.878906 -6.304688 1.40625 -10.492188 1.40625 -15.984375 L 1.40625 -18.9375 C 1.40625 -24.457031 2.882812 -28.640625 5.84375 -31.484375 C 8.8125 -34.335938 13.082031 -35.765625 18.65625 -35.765625 C 24.300781 -35.765625 28.601562 -34.335938 31.5625 -31.484375 C 34.519531 -28.640625 36 -24.457031 36 -18.9375 L 36 -15.984375 C 36 -10.492188 34.519531 -6.304688 31.5625 -3.421875 C 28.601562 -0.546875 24.316406 0.890625 18.703125 0.890625 Z M 13.578125 -15.140625 C 13.578125 -10.742188 15.285156 -8.546875 18.703125 -8.546875 C 22.085938 -8.546875 23.78125 -10.742188 23.78125 -15.140625 L 23.78125 -19.734375 C 23.78125 -24.117188 22.085938 -26.3125 18.703125 -26.3125 C 15.285156 -26.3125 13.578125 -24.117188 13.578125 -19.734375 Z M 13.578125 -15.140625 "/></g></g></g><g fill="#ffffff" fill-opacity="1"><g transform="translate(144.256051, 317.071942)"><g><path d="M 2.625 0 L 2.625 -34.96875 L 20.203125 -34.96875 C 25.347656 -34.96875 29.054688 -34.007812 31.328125 -32.09375 C 33.597656 -30.1875 34.734375 -27.570312 34.734375 -24.25 L 34.734375 -23.96875 C 34.734375 -21.71875 34.191406 -19.816406 33.109375 -18.265625 C 32.023438 -16.710938 30.453125 -15.671875 28.390625 -15.140625 L 28.390625 -15.09375 C 30.171875 -14.644531 31.484375 -13.753906 32.328125 -12.421875 C 33.179688 -11.097656 33.6875 -9.320312 33.84375 -7.09375 L 34.078125 -4.515625 C 34.265625 -2.753906 34.625 -1.25 35.15625 0 L 23.171875 0 C 22.859375 -1 22.5625 -2.769531 22.28125 -5.3125 L 22 -7.46875 C 21.875 -8.570312 21.488281 -9.40625 20.84375 -9.96875 C 20.195312 -10.53125 19.15625 -10.8125 17.71875 -10.8125 L 14.71875 -10.8125 L 14.71875 0 Z M 14.71875 -18.5625 L 18.84375 -18.5625 C 20.039062 -18.5625 20.984375 -18.859375 21.671875 -19.453125 C 22.359375 -20.046875 22.703125 -21.050781 22.703125 -22.46875 L 22.703125 -22.84375 C 22.703125 -25.21875 21.476562 -26.40625 19.03125 -26.40625 L 14.71875 -26.40625 Z M 14.71875 -18.5625 "/></g></g></g><g fill="#ffffff" fill-opacity="1"><g transform="translate(177.056051, 317.071942)"><g><path d="M 9.125 0 L 9.125 -26.125 L 0.375 -26.125 L 0.375 -34.96875 L 29.984375 -34.96875 L 29.984375 -26.125 L 21.203125 -26.125 L 21.203125 0 Z M 9.125 0 "/></g></g></g><g fill="#ffffff" fill-opacity="1"><g transform="translate(204.404957, 317.071942)"><g><path d="M 18.515625 0.890625 C 14.503906 0.890625 11.289062 0.34375 8.875 -0.75 C 6.46875 -1.84375 4.726562 -3.523438 3.65625 -5.796875 C 2.59375 -8.078125 2.0625 -10.9375 2.0625 -14.375 L 2.0625 -34.96875 L 14.140625 -34.96875 L 14.140625 -13.859375 C 14.140625 -10.316406 15.613281 -8.546875 18.5625 -8.546875 C 21.476562 -8.546875 22.9375 -10.300781 22.9375 -13.8125 L 22.9375 -34.96875 L 35.015625 -34.96875 L 35.015625 -14.375 C 35.015625 -10.96875 34.488281 -8.132812 33.4375 -5.875 C 32.382812 -3.613281 30.660156 -1.921875 28.265625 -0.796875 C 25.867188 0.328125 22.617188 0.890625 18.515625 0.890625 Z M 18.515625 0.890625 "/></g></g></g><g fill="#ffffff" fill-opacity="1"><g transform="translate(238.426752, 317.071942)"><g><path d="M 2.625 0 L 2.625 -34.96875 L 15.703125 -34.96875 L 24.296875 -18.65625 L 25.703125 -15.46875 L 25.65625 -19.265625 L 25.65625 -34.96875 L 36.796875 -34.96875 L 36.796875 0 L 23.6875 0 L 15.140625 -16.3125 L 13.71875 -19.5 L 13.71875 0 Z M 2.625 0 "/></g></g></g><g fill="#ffffff" fill-opacity="1"><g transform="translate(274.845145, 317.071942)"><g><path d="M 2.625 0 L 2.625 -34.96875 L 14.71875 -34.96875 L 14.71875 0 Z M 2.625 0 "/></g></g></g><g fill="#ffffff" fill-opacity="1"><g transform="translate(289.177245, 317.071942)"><g><path d="M 9.125 0 L 9.125 -26.125 L 0.375 -26.125 L 0.375 -34.96875 L 29.984375 -34.96875 L 29.984375 -26.125 L 21.203125 -26.125 L 21.203125 0 Z M 9.125 0 "/></g></g></g><g fill="#ffffff" fill-opacity="1"><g transform="translate(316.52615, 317.071942)"><g><path d="M 12.265625 0 L 12.265625 -9.359375 L 0.28125 -34.96875 L 13.625 -34.96875 L 17.859375 -21.90625 L 18.328125 -19.640625 L 18.84375 -21.90625 L 22.984375 -34.96875 L 36.328125 -34.96875 L 24.390625 -9.359375 L 24.390625 0 Z M 12.265625 0 "/></g></g></g><g fill="#ffffff" fill-opacity="1"><g transform="translate(30.324127, 83.799992)"><g><path d="M 2.625 0 L 2.625 -34.96875 L 15.703125 -34.96875 L 24.296875 -18.65625 L 25.703125 -15.46875 L 25.65625 -19.265625 L 25.65625 -34.96875 L 36.796875 -34.96875 L 36.796875 0 L 23.6875 0 L 15.140625 -16.3125 L 13.71875 -19.5 L 13.71875 0 Z M 2.625 0 "/></g></g></g><g fill="#ffffff" fill-opacity="1"><g transform="translate(66.74252, 83.799992)"><g><path d="M 18.703125 0.890625 C 13.066406 0.890625 8.773438 -0.546875 5.828125 -3.421875 C 2.878906 -6.304688 1.40625 -10.492188 1.40625 -15.984375 L 1.40625 -18.9375 C 1.40625 -24.457031 2.882812 -28.640625 5.84375 -31.484375 C 8.8125 -34.335938 13.082031 -35.765625 18.65625 -35.765625 C 24.300781 -35.765625 28.601562 -34.335938 31.5625 -31.484375 C 34.519531 -28.640625 36 -24.457031 36 -18.9375 L 36 -15.984375 C 36 -10.492188 34.519531 -6.304688 31.5625 -3.421875 C 28.601562 -0.546875 24.316406 0.890625 18.703125 0.890625 Z M 13.578125 -15.140625 C 13.578125 -10.742188 15.285156 -8.546875 18.703125 -8.546875 C 22.085938 -8.546875 23.78125 -10.742188 23.78125 -15.140625 L 23.78125 -19.734375 C 23.78125 -24.117188 22.085938 -26.3125 18.703125 -26.3125 C 15.285156 -26.3125 13.578125 -24.117188 13.578125 -19.734375 Z M 13.578125 -15.140625 "/></g></g></g><g fill="#ffffff" fill-opacity="1"><g transform="translate(101.093253, 83.799992)"><g><path d="M 2.625 0 L 2.625 -34.96875 L 15.703125 -34.96875 L 24.296875 -18.65625 L 25.703125 -15.46875 L 25.65625 -19.265625 L 25.65625 -34.96875 L 36.796875 -34.96875 L 36.796875 0 L 23.6875 0 L 15.140625 -16.3125 L 13.71875 -19.5 L 13.71875 0 Z M 2.625 0 "/></g></g></g><g fill="#ffffff" fill-opacity="1"><g transform="translate(137.511646, 83.799992)"><g><path d="M 25.515625 -9.078125 L 2.625 -9.078125 L 2.625 -17.203125 L 25.515625 -17.203125 Z M 25.515625 -9.078125 "/></g></g></g><g fill="#ffffff" fill-opacity="1"><g transform="translate(162.651922, 83.799992)"><g><path d="M 2.625 0 L 2.625 -34.96875 L 20.734375 -34.96875 C 25.023438 -34.96875 28.429688 -33.894531 30.953125 -31.75 C 33.472656 -29.601562 34.734375 -26.414062 34.734375 -22.1875 L 34.734375 -21.71875 C 34.734375 -17.394531 33.519531 -14.101562 31.09375 -11.84375 C 28.664062 -9.582031 25.398438 -8.453125 21.296875 -8.453125 L 14.71875 -8.453125 L 14.71875 0 Z M 14.71875 -17.25 L 18.796875 -17.25 C 20.054688 -17.25 21.03125 -17.578125 21.71875 -18.234375 C 22.40625 -18.890625 22.75 -20.019531 22.75 -21.625 L 22.75 -21.953125 C 22.75 -24.734375 21.445312 -26.125 18.84375 -26.125 L 14.71875 -26.125 Z M 14.71875 -17.25 "/></g></g></g><g fill="#ffffff" fill-opacity="1"><g transform="translate(194.981994, 83.799992)"><g><path d="M 2.625 0 L 2.625 -34.96875 L 20.203125 -34.96875 C 25.347656 -34.96875 29.054688 -34.007812 31.328125 -32.09375 C 33.597656 -30.1875 34.734375 -27.570312 34.734375 -24.25 L 34.734375 -23.96875 C 34.734375 -21.71875 34.191406 -19.816406 33.109375 -18.265625 C 32.023438 -16.710938 30.453125 -15.671875 28.390625 -15.140625 L 28.390625 -15.09375 C 30.171875 -14.644531 31.484375 -13.753906 32.328125 -12.421875 C 33.179688 -11.097656 33.6875 -9.320312 33.84375 -7.09375 L 34.078125 -4.515625 C 34.265625 -2.753906 34.625 -1.25 35.15625 0 L 23.171875 0 C 22.859375 -1 22.5625 -2.769531 22.28125 -5.3125 L 22 -7.46875 C 21.875 -8.570312 21.488281 -9.40625 20.84375 -9.96875 C 20.195312 -10.53125 19.15625 -10.8125 17.71875 -10.8125 L 14.71875 -10.8125 L 14.71875 0 Z M 14.71875 -18.5625 L 18.84375 -18.5625 C 20.039062 -18.5625 20.984375 -18.859375 21.671875 -19.453125 C 22.359375 -20.046875 22.703125 -21.050781 22.703125 -22.46875 L 22.703125 -22.84375 C 22.703125 -25.21875 21.476562 -26.40625 19.03125 -26.40625 L 14.71875 -26.40625 Z M 14.71875 -18.5625 "/></g></g></g><g fill="#ffffff" fill-opacity="1"><g transform="translate(227.781984, 83.799992)"><g><path d="M 18.703125 0.890625 C 13.066406 0.890625 8.773438 -0.546875 5.828125 -3.421875 C 2.878906 -6.304688 1.40625 -10.492188 1.40625 -15.984375 L 1.40625 -18.9375 C 1.40625 -24.457031 2.882812 -28.640625 5.84375 -31.484375 C 8.8125 -34.335938 13.082031 -35.765625 18.65625 -35.765625 C 24.300781 -35.765625 28.601562 -34.335938 31.5625 -31.484375 C 34.519531 -28.640625 36 -24.457031 36 -18.9375 L 36 -15.984375 C 36 -10.492188 34.519531 -6.304688 31.5625 -3.421875 C 28.601562 -0.546875 24.316406 0.890625 18.703125 0.890625 Z M 13.578125 -15.140625 C 13.578125 -10.742188 15.285156 -8.546875 18.703125 -8.546875 C 22.085938 -8.546875 23.78125 -10.742188 23.78125 -15.140625 L 23.78125 -19.734375 C 23.78125 -24.117188 22.085938 -26.3125 18.703125 -26.3125 C 15.285156 -26.3125 13.578125 -24.117188 13.578125 -19.734375 Z M 13.578125 -15.140625 "/></g></g></g><g fill="#ffffff" fill-opacity="1"><g transform="translate(262.132728, 83.799992)"><g><path d="M 2.625 0 L 2.625 -34.96875 L 29.1875 -34.96875 L 29.1875 -26.265625 L 14.71875 -26.265625 L 14.71875 -20.734375 L 27.546875 -20.734375 L 27.546875 -12.265625 L 14.71875 -12.265625 L 14.71875 0 Z M 2.625 0 "/></g></g></g><g fill="#ffffff" fill-opacity="1"><g transform="translate(289.011717, 83.799992)"><g><path d="M 2.625 0 L 2.625 -34.96875 L 14.71875 -34.96875 L 14.71875 0 Z M 2.625 0 "/></g></g></g><g fill="#ffffff" fill-opacity="1"><g transform="translate(303.343793, 83.799992)"><g><path d="M 9.125 0 L 9.125 -26.125 L 0.375 -26.125 L 0.375 -34.96875 L 29.984375 -34.96875 L 29.984375 -26.125 L 21.203125 -26.125 L 21.203125 0 Z M 9.125 0 "/></g></g></g></svg>