<svg xmlns="http://www.w3.org/2000/svg" xmlns:xlink="http://www.w3.org/1999/xlink" width="500" zoomAndPan="magnify" viewBox="0 0 375 374.999991" height="500" preserveAspectRatio="xMidYMid meet" version="1.0"><defs><g/><clipPath id="a04ea19bf3"><rect x="0" width="319" y="0" height="87"/></clipPath></defs><rect x="-37.5" width="450" fill="#ffffff" y="-37.499999" height="449.999989" fill-opacity="1"/><rect x="-37.5" width="450" fill="#000000" y="-37.499999" height="449.999989" fill-opacity="1"/><g transform="matrix(1, 0, 0, 1, 28, 144)"><g clip-path="url(#a04ea19bf3)"><g fill="#ffffff" fill-opacity="1"><g transform="translate(0.632525, 68.994119)"><g><path d="M 25.828125 1.234375 C 18.035156 1.234375 12.109375 -0.753906 8.046875 -4.734375 C 3.984375 -8.710938 1.953125 -14.488281 1.953125 -22.0625 L 1.953125 -26.15625 C 1.953125 -33.769531 3.992188 -39.539062 8.078125 -43.46875 C 12.171875 -47.40625 18.066406 -49.375 25.765625 -49.375 C 33.546875 -49.375 39.476562 -47.40625 43.5625 -43.46875 C 47.65625 -39.539062 49.703125 -33.769531 49.703125 -26.15625 L 49.703125 -22.0625 C 49.703125 -14.488281 47.65625 -8.710938 43.5625 -4.734375 C 39.476562 -0.753906 33.566406 1.234375 25.828125 1.234375 Z M 18.75 -20.890625 C 18.75 -14.835938 21.109375 -11.8125 25.828125 -11.8125 C 30.492188 -11.8125 32.828125 -14.835938 32.828125 -20.890625 L 32.828125 -27.25 C 32.828125 -33.3125 30.492188 -36.34375 25.828125 -36.34375 C 21.109375 -36.34375 18.75 -33.3125 18.75 -27.25 Z M 18.75 -20.890625 "/></g></g></g><g fill="#ffffff" fill-opacity="1"><g transform="translate(48.061169, 68.994119)"><g><path d="M 3.640625 0 L 3.640625 -48.28125 L 21.671875 -48.28125 L 33.546875 -25.765625 L 35.5 -21.34375 L 35.4375 -26.609375 L 35.4375 -48.28125 L 50.8125 -48.28125 L 50.8125 0 L 32.703125 0 L 20.890625 -22.515625 L 18.953125 -26.921875 L 18.953125 0 Z M 3.640625 0 "/></g></g></g><g fill="#ffffff" fill-opacity="1"><g transform="translate(98.344626, 68.994119)"><g><path d="M 3.640625 0 L 3.640625 -48.28125 L 20.3125 -48.28125 L 20.3125 -12.203125 L 38.484375 -12.203125 L 38.484375 0 Z M 3.640625 0 "/></g></g></g><g fill="#ffffff" fill-opacity="1"><g transform="translate(133.770084, 68.994119)"><g><path d="M 16.9375 0 L 16.9375 -12.90625 L 0.390625 -48.28125 L 18.8125 -48.28125 L 24.65625 -30.234375 L 25.3125 -27.125 L 26.015625 -30.234375 L 31.734375 -48.28125 L 50.15625 -48.28125 L 33.671875 -12.90625 L 33.671875 0 Z M 16.9375 0 "/></g></g></g><g fill="#ffffff" fill-opacity="1"><g transform="translate(180.160603, 68.994119)"><g><path d="M 23.296875 1.234375 C 15.984375 1.234375 10.53125 -0.28125 6.9375 -3.3125 C 3.351562 -6.34375 1.539062 -10.472656 1.5 -15.703125 L 17.203125 -15.703125 C 17.242188 -14.097656 17.6875 -12.753906 18.53125 -11.671875 C 19.375 -10.597656 20.984375 -10.0625 23.359375 -10.0625 C 25.222656 -10.0625 26.550781 -10.414062 27.34375 -11.125 C 28.144531 -11.84375 28.546875 -12.742188 28.546875 -13.828125 C 28.546875 -14.859375 28.304688 -15.664062 27.828125 -16.25 C 27.359375 -16.832031 26.484375 -17.382812 25.203125 -17.90625 C 23.929688 -18.425781 22.0625 -19.035156 19.59375 -19.734375 C 14.96875 -20.722656 11.410156 -21.890625 8.921875 -23.234375 C 6.429688 -24.578125 4.710938 -26.1875 3.765625 -28.0625 C 2.816406 -29.945312 2.34375 -32.1875 2.34375 -34.78125 L 2.34375 -34.84375 C 2.34375 -37.695312 3.078125 -40.21875 4.546875 -42.40625 C 6.015625 -44.59375 8.269531 -46.300781 11.3125 -47.53125 C 14.363281 -48.757812 18.25 -49.375 22.96875 -49.375 C 27.769531 -49.375 31.695312 -48.671875 34.75 -47.265625 C 37.800781 -45.859375 40.0625 -43.910156 41.53125 -41.421875 C 43 -38.941406 43.753906 -36.035156 43.796875 -32.703125 L 28.75 -32.703125 C 28.707031 -34.304688 28.285156 -35.601562 27.484375 -36.59375 C 26.679688 -37.59375 25.21875 -38.09375 23.09375 -38.09375 C 21.363281 -38.09375 20.140625 -37.773438 19.421875 -37.140625 C 18.710938 -36.515625 18.359375 -35.75 18.359375 -34.84375 L 18.359375 -34.78125 C 18.359375 -33.65625 18.8125 -32.753906 19.71875 -32.078125 C 20.632812 -31.410156 22.238281 -30.816406 24.53125 -30.296875 C 28.6875 -29.484375 32.082031 -28.546875 34.71875 -27.484375 C 37.351562 -26.421875 39.394531 -25.226562 40.84375 -23.90625 C 42.289062 -22.59375 43.304688 -21.113281 43.890625 -19.46875 C 44.484375 -17.820312 44.78125 -15.984375 44.78125 -13.953125 C 44.78125 -9.066406 42.894531 -5.3125 39.125 -2.6875 C 35.363281 -0.0703125 30.085938 1.234375 23.296875 1.234375 Z M 23.296875 1.234375 "/></g></g></g><g fill="#ffffff" fill-opacity="1"><g transform="translate(222.333804, 68.994119)"><g><path d="M 3.640625 0 L 3.640625 -48.28125 L 28.609375 -48.28125 C 34.535156 -48.28125 39.238281 -46.796875 42.71875 -43.828125 C 46.207031 -40.867188 47.953125 -36.46875 47.953125 -30.625 L 47.953125 -29.984375 C 47.953125 -24.015625 46.273438 -19.472656 42.921875 -16.359375 C 39.566406 -13.242188 35.054688 -11.6875 29.390625 -11.6875 L 20.3125 -11.6875 L 20.3125 0 Z M 20.3125 -23.8125 L 25.953125 -23.8125 C 27.679688 -23.8125 29.019531 -24.265625 29.96875 -25.171875 C 30.925781 -26.085938 31.40625 -27.644531 31.40625 -29.84375 L 31.40625 -30.296875 C 31.40625 -34.148438 29.609375 -36.078125 26.015625 -36.078125 L 20.3125 -36.078125 Z M 20.3125 -23.8125 "/></g></g></g><g fill="#ffffff" fill-opacity="1"><g transform="translate(266.972521, 68.994119)"><g><path d="M 0.390625 0 L 12.53125 -24.59375 L 1.5625 -48.28125 L 19.796875 -48.28125 L 24.71875 -34.453125 L 25.703125 -31.21875 L 25.765625 -31.21875 L 26.796875 -34.453125 L 31.671875 -48.28125 L 49.90625 -48.28125 L 38.9375 -24.65625 L 51 0 L 32.765625 0 L 26.796875 -14.859375 L 25.703125 -18.171875 L 24.53125 -14.796875 L 18.6875 0 Z M 0.390625 0 "/></g></g></g></g></g></svg>