<svg xmlns="http://www.w3.org/2000/svg" xmlns:xlink="http://www.w3.org/1999/xlink" width="500" zoomAndPan="magnify" viewBox="0 0 375 374.999991" height="500" preserveAspectRatio="xMidYMid meet" version="1.0"><defs><g/><clipPath id="4462e63fd9"><path d="M 27.449219 49.15625 L 347.550781 49.15625 L 347.550781 325.835938 L 27.449219 325.835938 Z M 27.449219 49.15625 " clip-rule="nonzero"/></clipPath><clipPath id="b5e8a440c4"><path d="M 43.09375 67.609375 L 331.035156 67.609375 L 331.035156 197.164062 L 43.09375 197.164062 Z M 43.09375 67.609375 " clip-rule="nonzero"/></clipPath><clipPath id="a7566f322e"><path d="M 0.09375 0.609375 L 288.035156 0.609375 L 288.035156 130.164062 L 0.09375 130.164062 Z M 0.09375 0.609375 " clip-rule="nonzero"/></clipPath><clipPath id="06b1b41845"><rect x="0" width="289" y="0" height="131"/></clipPath><clipPath id="0647e624dd"><rect x="0" width="260" y="0" height="87"/></clipPath><clipPath id="2d0c7360ae"><rect x="0" width="229" y="0" height="87"/></clipPath></defs><rect x="-37.5" width="450" fill="#ffffff" y="-37.499999" height="449.999989" fill-opacity="1"/><rect x="-37.5" width="450" fill="#ffffff" y="-37.499999" height="449.999989" fill-opacity="1"/><g clip-path="url(#4462e63fd9)"><path stroke-linecap="butt" transform="matrix(0.75, 0, 0, 0.75, 27.44784, 49.15655)" fill="none" stroke-linejoin="miter" d="M 0.00183794 -0.000399429 L 426.803949 -0.000399429 L 426.803949 368.905875 L 0.00183794 368.905875 Z M 0.00183794 -0.000399429 " stroke="#000000" stroke-width="6" stroke-opacity="1" stroke-miterlimit="4"/></g><g clip-path="url(#b5e8a440c4)"><g transform="matrix(1, 0, 0, 1, 43, 67)"><g clip-path="url(#06b1b41845)"><g clip-path="url(#a7566f322e)"><path fill="#000000" d="M 0.09375 0.609375 L 288.054688 0.609375 L 288.054688 130.164062 L 0.09375 130.164062 Z M 0.09375 0.609375 " fill-opacity="1" fill-rule="nonzero"/></g></g></g></g><g transform="matrix(1, 0, 0, 1, 60, 88)"><g clip-path="url(#0647e624dd)"><g fill="#ffffff" fill-opacity="1"><g transform="translate(1.743091, 71.038159)"><g><path d="M 18.375 -41.09375 C 21.695312 -41.09375 24.425781 -40.425781 26.5625 -39.09375 C 28.695312 -37.757812 30.234375 -36.078125 31.171875 -34.046875 C 32.109375 -32.015625 32.578125 -29.863281 32.578125 -27.59375 C 32.578125 -25.320312 32.109375 -23.175781 31.171875 -21.15625 C 30.234375 -19.144531 28.707031 -17.484375 26.59375 -16.171875 C 24.476562 -14.859375 21.738281 -14.203125 18.375 -14.203125 L 9.328125 -14.203125 L 9.328125 0 L 4.40625 0 L 4.40625 -41.09375 Z M 17.734375 -18.609375 C 20.546875 -18.609375 22.898438 -19.28125 24.796875 -20.625 C 26.703125 -21.976562 27.65625 -24.300781 27.65625 -27.59375 C 27.65625 -30.84375 26.703125 -33.140625 24.796875 -34.484375 C 22.898438 -35.835938 20.546875 -36.515625 17.734375 -36.515625 L 9.328125 -36.515625 L 9.328125 -18.609375 Z M 17.734375 -18.609375 "/></g></g></g><g fill="#ffffff" fill-opacity="1"><g transform="translate(40.539249, 71.038159)"><g><path d="M 28.359375 -11.96875 L 11.625 -11.96875 L 7.28125 0 L 2.109375 0 L 17.546875 -41.09375 L 22.359375 -41.09375 L 37.921875 0 L 32.75 0 Z M 26.890625 -16.03125 L 20.015625 -34.640625 L 19.78125 -34.640625 L 13.09375 -16.03125 Z M 26.890625 -16.03125 "/></g></g></g><g fill="#ffffff" fill-opacity="1"><g transform="translate(84.910983, 71.038159)"><g><path d="M 31.875 -36.515625 L 19.78125 -36.515625 L 19.78125 0 L 14.734375 0 L 14.734375 -36.515625 L 2.640625 -36.515625 L 2.640625 -41.09375 L 31.875 -41.09375 Z M 31.875 -36.515625 "/></g></g></g><g fill="#ffffff" fill-opacity="1"><g transform="translate(123.941903, 71.038159)"><g><path d="M 16.796875 -16.375 L 9.453125 -16.375 L 9.453125 0 L 4.40625 0 L 4.40625 -41.09375 L 18.375 -41.09375 C 21.695312 -41.09375 24.425781 -40.484375 26.5625 -39.265625 C 28.695312 -38.054688 30.234375 -36.507812 31.171875 -34.625 C 32.109375 -32.75 32.578125 -30.773438 32.578125 -28.703125 C 32.578125 -25.847656 31.722656 -23.285156 30.015625 -21.015625 C 28.316406 -18.742188 25.671875 -17.296875 22.078125 -16.671875 L 32.9375 0 L 27.359375 0 Z M 9.453125 -20.71875 L 17.734375 -20.71875 C 20.503906 -20.71875 22.847656 -21.320312 24.765625 -22.53125 C 26.691406 -23.75 27.65625 -25.804688 27.65625 -28.703125 C 27.65625 -31.554688 26.691406 -33.570312 24.765625 -34.75 C 22.847656 -35.925781 20.503906 -36.515625 17.734375 -36.515625 L 9.453125 -36.515625 Z M 9.453125 -20.71875 "/></g></g></g><g fill="#ffffff" fill-opacity="1"><g transform="translate(163.911869, 71.038159)"><g><path d="M 21.609375 0.40625 C 17.691406 0.40625 14.332031 -0.488281 11.53125 -2.28125 C 8.738281 -4.082031 6.617188 -6.585938 5.171875 -9.796875 C 3.722656 -13.003906 3 -16.644531 3 -20.71875 C 3 -24.789062 3.726562 -28.441406 5.1875 -31.671875 C 6.65625 -34.898438 8.789062 -37.421875 11.59375 -39.234375 C 14.394531 -41.054688 17.734375 -41.96875 21.609375 -41.96875 C 25.441406 -41.96875 28.742188 -41.054688 31.515625 -39.234375 C 34.296875 -37.421875 36.410156 -34.910156 37.859375 -31.703125 C 39.304688 -28.492188 40.03125 -24.8125 40.03125 -20.65625 C 40.03125 -16.550781 39.304688 -12.910156 37.859375 -9.734375 C 36.410156 -6.566406 34.296875 -4.082031 31.515625 -2.28125 C 28.742188 -0.488281 25.441406 0.40625 21.609375 0.40625 Z M 21.546875 -4.28125 C 24.242188 -4.28125 26.585938 -4.972656 28.578125 -6.359375 C 30.578125 -7.753906 32.101562 -9.703125 33.15625 -12.203125 C 34.21875 -14.710938 34.75 -17.570312 34.75 -20.78125 C 34.75 -23.988281 34.21875 -26.84375 33.15625 -29.34375 C 32.101562 -31.851562 30.578125 -33.8125 28.578125 -35.21875 C 26.585938 -36.625 24.242188 -37.328125 21.546875 -37.328125 C 18.847656 -37.328125 16.5 -36.613281 14.5 -35.1875 C 12.5 -33.757812 10.96875 -31.789062 9.90625 -29.28125 C 8.851562 -26.78125 8.328125 -23.945312 8.328125 -20.78125 C 8.328125 -17.570312 8.851562 -14.722656 9.90625 -12.234375 C 10.96875 -9.753906 12.5 -7.804688 14.5 -6.390625 C 16.5 -4.984375 18.847656 -4.28125 21.546875 -4.28125 Z M 21.546875 -4.28125 "/></g></g></g><g fill="#ffffff" fill-opacity="1"><g transform="translate(211.511587, 71.038159)"><g><path d="M 4.40625 -41.09375 L 10.09375 -41.09375 L 32.109375 -8.09375 L 32.34375 -8.09375 L 32.34375 -41.09375 L 37.328125 -41.09375 L 37.328125 0 L 31.578125 0 L 9.625 -32.515625 L 9.390625 -32.515625 L 9.390625 0 L 4.40625 0 Z M 4.40625 -41.09375 "/></g></g></g></g></g><g transform="matrix(1, 0, 0, 1, 73, 209)"><g clip-path="url(#2d0c7360ae)"><g fill="#000000" fill-opacity="1"><g transform="translate(1.824057, 70.86945)"><g><path d="M 26.421875 -9.515625 L 13.265625 -9.515625 L 10.328125 0 L 1.0625 0 L 15.671875 -41.09375 L 24.1875 -41.09375 L 38.6875 0 L 29.40625 0 Z M 24.1875 -16.5 L 19.953125 -29.765625 L 19.609375 -29.765625 L 15.5 -16.5 Z M 24.1875 -16.5 "/></g></g></g><g fill="#000000" fill-opacity="1"><g transform="translate(41.322705, 70.86945)"><g><path d="M 21.078125 0.53125 C 17.117188 0.53125 13.722656 -0.4375 10.890625 -2.375 C 8.054688 -4.3125 5.90625 -6.90625 4.4375 -10.15625 C 2.96875 -13.40625 2.234375 -16.925781 2.234375 -20.71875 C 2.234375 -24.519531 2.96875 -28.035156 4.4375 -31.265625 C 5.90625 -34.492188 8.054688 -37.078125 10.890625 -39.015625 C 13.722656 -40.953125 17.117188 -41.921875 21.078125 -41.921875 C 25.890625 -41.921875 29.820312 -40.507812 32.875 -37.6875 C 35.925781 -34.863281 37.898438 -31.222656 38.796875 -26.765625 L 29.9375 -26.765625 C 29.46875 -28.804688 28.457031 -30.507812 26.90625 -31.875 C 25.363281 -33.25 23.457031 -33.9375 21.1875 -33.9375 C 18.0625 -33.9375 15.703125 -32.710938 14.109375 -30.265625 C 12.523438 -27.816406 11.734375 -24.632812 11.734375 -20.71875 C 11.734375 -16.726562 12.523438 -13.519531 14.109375 -11.09375 C 15.703125 -8.664062 18.0625 -7.453125 21.1875 -7.453125 C 23.414062 -7.453125 25.285156 -8.117188 26.796875 -9.453125 C 28.304688 -10.785156 29.316406 -12.367188 29.828125 -14.203125 L 38.5625 -14.203125 C 37.707031 -9.898438 35.757812 -6.367188 32.71875 -3.609375 C 29.6875 -0.847656 25.804688 0.53125 21.078125 0.53125 Z M 21.078125 0.53125 "/></g></g></g><g fill="#000000" fill-opacity="1"><g transform="translate(82.112544, 70.86945)"><g><path d="M 21.078125 0.53125 C 17.117188 0.53125 13.722656 -0.4375 10.890625 -2.375 C 8.054688 -4.3125 5.90625 -6.90625 4.4375 -10.15625 C 2.96875 -13.40625 2.234375 -16.925781 2.234375 -20.71875 C 2.234375 -24.519531 2.96875 -28.035156 4.4375 -31.265625 C 5.90625 -34.492188 8.054688 -37.078125 10.890625 -39.015625 C 13.722656 -40.953125 17.117188 -41.921875 21.078125 -41.921875 C 25.890625 -41.921875 29.820312 -40.507812 32.875 -37.6875 C 35.925781 -34.863281 37.898438 -31.222656 38.796875 -26.765625 L 29.9375 -26.765625 C 29.46875 -28.804688 28.457031 -30.507812 26.90625 -31.875 C 25.363281 -33.25 23.457031 -33.9375 21.1875 -33.9375 C 18.0625 -33.9375 15.703125 -32.710938 14.109375 -30.265625 C 12.523438 -27.816406 11.734375 -24.632812 11.734375 -20.71875 C 11.734375 -16.726562 12.523438 -13.519531 14.109375 -11.09375 C 15.703125 -8.664062 18.0625 -7.453125 21.1875 -7.453125 C 23.414062 -7.453125 25.285156 -8.117188 26.796875 -9.453125 C 28.304688 -10.785156 29.316406 -12.367188 29.828125 -14.203125 L 38.5625 -14.203125 C 37.707031 -9.898438 35.757812 -6.367188 32.71875 -3.609375 C 29.6875 -0.847656 25.804688 0.53125 21.078125 0.53125 Z M 21.078125 0.53125 "/></g></g></g><g fill="#000000" fill-opacity="1"><g transform="translate(122.902382, 70.86945)"><g><path d="M 12.265625 -33.109375 L 12.265625 -24.359375 L 27.890625 -24.359375 L 27.890625 -17.265625 L 12.265625 -17.265625 L 12.265625 -7.984375 L 30.8125 -7.984375 L 30.8125 0 L 3.046875 0 L 3.046875 -41.09375 L 30.8125 -41.09375 L 30.8125 -33.109375 Z M 12.265625 -33.109375 "/></g></g></g><g fill="#000000" fill-opacity="1"><g transform="translate(156.121145, 70.86945)"><g><path d="M 18.25 0.53125 C 14.96875 0.53125 12.125 -0.113281 9.71875 -1.40625 C 7.3125 -2.695312 5.488281 -4.390625 4.25 -6.484375 C 3.019531 -8.578125 2.40625 -10.757812 2.40625 -13.03125 L 2.40625 -13.5 L 12.4375 -13.5 L 12.4375 -13.09375 C 12.4375 -11.6875 12.945312 -10.394531 13.96875 -9.21875 C 14.988281 -8.039062 16.476562 -7.453125 18.4375 -7.453125 C 20.113281 -7.453125 21.460938 -7.878906 22.484375 -8.734375 C 23.503906 -9.597656 24.015625 -10.738281 24.015625 -12.15625 C 24.015625 -13.40625 23.5625 -14.410156 22.65625 -15.171875 C 21.757812 -15.929688 20.664062 -16.453125 19.375 -16.734375 L 14.671875 -17.671875 C 11.929688 -18.296875 9.367188 -19.46875 6.984375 -21.1875 C 4.597656 -22.914062 3.40625 -25.734375 3.40625 -29.640625 C 3.40625 -32.179688 4.019531 -34.375 5.25 -36.21875 C 6.488281 -38.0625 8.203125 -39.472656 10.390625 -40.453125 C 12.578125 -41.429688 15.0625 -41.921875 17.84375 -41.921875 C 21.007812 -41.921875 23.75 -41.3125 26.0625 -40.09375 C 28.375 -38.882812 30.113281 -37.3125 31.28125 -35.375 C 32.457031 -33.4375 33.046875 -31.410156 33.046875 -29.296875 L 33.046875 -29 L 23.015625 -29 L 23.015625 -29.171875 C 23.015625 -30.421875 22.570312 -31.582031 21.6875 -32.65625 C 20.8125 -33.738281 19.414062 -34.28125 17.5 -34.28125 C 16.007812 -34.28125 14.820312 -33.867188 13.9375 -33.046875 C 13.0625 -32.222656 12.625 -31.148438 12.625 -29.828125 C 12.625 -28.535156 13.113281 -27.515625 14.09375 -26.765625 C 15.070312 -26.023438 16.242188 -25.519531 17.609375 -25.25 L 22.359375 -24.1875 C 25.453125 -23.519531 28.09375 -22.265625 30.28125 -20.421875 C 32.476562 -18.585938 33.578125 -15.910156 33.578125 -12.390625 C 33.578125 -9.804688 32.910156 -7.535156 31.578125 -5.578125 C 30.253906 -3.617188 28.425781 -2.109375 26.09375 -1.046875 C 23.757812 0.00390625 21.144531 0.53125 18.25 0.53125 Z M 18.25 0.53125 "/></g></g></g><g fill="#000000" fill-opacity="1"><g transform="translate(191.628847, 70.86945)"><g><path d="M 18.25 0.53125 C 14.96875 0.53125 12.125 -0.113281 9.71875 -1.40625 C 7.3125 -2.695312 5.488281 -4.390625 4.25 -6.484375 C 3.019531 -8.578125 2.40625 -10.757812 2.40625 -13.03125 L 2.40625 -13.5 L 12.4375 -13.5 L 12.4375 -13.09375 C 12.4375 -11.6875 12.945312 -10.394531 13.96875 -9.21875 C 14.988281 -8.039062 16.476562 -7.453125 18.4375 -7.453125 C 20.113281 -7.453125 21.460938 -7.878906 22.484375 -8.734375 C 23.503906 -9.597656 24.015625 -10.738281 24.015625 -12.15625 C 24.015625 -13.40625 23.5625 -14.410156 22.65625 -15.171875 C 21.757812 -15.929688 20.664062 -16.453125 19.375 -16.734375 L 14.671875 -17.671875 C 11.929688 -18.296875 9.367188 -19.46875 6.984375 -21.1875 C 4.597656 -22.914062 3.40625 -25.734375 3.40625 -29.640625 C 3.40625 -32.179688 4.019531 -34.375 5.25 -36.21875 C 6.488281 -38.0625 8.203125 -39.472656 10.390625 -40.453125 C 12.578125 -41.429688 15.0625 -41.921875 17.84375 -41.921875 C 21.007812 -41.921875 23.75 -41.3125 26.0625 -40.09375 C 28.375 -38.882812 30.113281 -37.3125 31.28125 -35.375 C 32.457031 -33.4375 33.046875 -31.410156 33.046875 -29.296875 L 33.046875 -29 L 23.015625 -29 L 23.015625 -29.171875 C 23.015625 -30.421875 22.570312 -31.582031 21.6875 -32.65625 C 20.8125 -33.738281 19.414062 -34.28125 17.5 -34.28125 C 16.007812 -34.28125 14.820312 -33.867188 13.9375 -33.046875 C 13.0625 -32.222656 12.625 -31.148438 12.625 -29.828125 C 12.625 -28.535156 13.113281 -27.515625 14.09375 -26.765625 C 15.070312 -26.023438 16.242188 -25.519531 17.609375 -25.25 L 22.359375 -24.1875 C 25.453125 -23.519531 28.09375 -22.265625 30.28125 -20.421875 C 32.476562 -18.585938 33.578125 -15.910156 33.578125 -12.390625 C 33.578125 -9.804688 32.910156 -7.535156 31.578125 -5.578125 C 30.253906 -3.617188 28.425781 -2.109375 26.09375 -1.046875 C 23.757812 0.00390625 21.144531 0.53125 18.25 0.53125 Z M 18.25 0.53125 "/></g></g></g></g></g></svg>