<svg xmlns="http://www.w3.org/2000/svg" xmlns:xlink="http://www.w3.org/1999/xlink" width="500" zoomAndPan="magnify" viewBox="0 0 375 374.999991" height="500" preserveAspectRatio="xMidYMid meet" version="1.0"><defs><g/><clipPath id="64fe3d5654"><path d="M 56.488281 151.464844 L 318.167969 151.464844 L 318.167969 223.464844 L 56.488281 223.464844 Z M 56.488281 151.464844 " clip-rule="nonzero"/></clipPath><clipPath id="8e57616194"><path d="M 63.558594 158.238281 L 187.332031 158.238281 L 187.332031 216.761719 L 63.558594 216.761719 Z M 63.558594 158.238281 " clip-rule="nonzero"/></clipPath><clipPath id="49dba1327e"><path d="M 0.558594 0.238281 L 124.332031 0.238281 L 124.332031 58.761719 L 0.558594 58.761719 Z M 0.558594 0.238281 " clip-rule="nonzero"/></clipPath><clipPath id="5a54f0ade0"><rect x="0" width="125" y="0" height="59"/></clipPath></defs><rect x="-37.5" width="450" fill="#ffffff" y="-37.499999" height="449.999989" fill-opacity="1"/><rect x="-37.5" width="450" fill="#ffffff" y="-37.499999" height="449.999989" fill-opacity="1"/><g clip-path="url(#64fe3d5654)"><path stroke-linecap="butt" transform="matrix(0.75, 0, 0, 0.75, 56.489269, 151.465449)" fill="none" stroke-linejoin="miter" d="M -0.00131672 -0.000807338 L 348.904956 -0.000807338 L 348.904956 96.092949 L -0.00131672 96.092949 Z M -0.00131672 -0.000807338 " stroke="#000000" stroke-width="6" stroke-opacity="1" stroke-miterlimit="4"/></g><g clip-path="url(#8e57616194)"><g transform="matrix(1, 0, 0, 1, 63, 158)"><g clip-path="url(#5a54f0ade0)"><g clip-path="url(#49dba1327e)"><path fill="#000000" d="M 0.558594 0.238281 L 124.238281 0.238281 L 124.238281 58.761719 L 0.558594 58.761719 Z M 0.558594 0.238281 " fill-opacity="1" fill-rule="nonzero"/></g></g></g></g><g fill="#ffffff" fill-opacity="1"><g transform="translate(65.282541, 200.368259)"><g><path d="M 8.796875 -19.671875 C 10.390625 -19.671875 11.695312 -19.347656 12.71875 -18.703125 C 13.738281 -18.066406 14.472656 -17.257812 14.921875 -16.28125 C 15.367188 -15.3125 15.59375 -14.285156 15.59375 -13.203125 C 15.59375 -12.117188 15.367188 -11.09375 14.921875 -10.125 C 14.472656 -9.164062 13.738281 -8.367188 12.71875 -7.734375 C 11.707031 -7.109375 10.398438 -6.796875 8.796875 -6.796875 L 4.46875 -6.796875 L 4.46875 0 L 2.109375 0 L 2.109375 -19.671875 Z M 8.484375 -8.90625 C 9.828125 -8.90625 10.953125 -9.226562 11.859375 -9.875 C 12.773438 -10.519531 13.234375 -11.628906 13.234375 -13.203125 C 13.234375 -14.753906 12.773438 -15.851562 11.859375 -16.5 C 10.953125 -17.144531 9.828125 -17.46875 8.484375 -17.46875 L 4.46875 -17.46875 L 4.46875 -8.90625 Z M 8.484375 -8.90625 "/></g></g></g><g fill="#ffffff" fill-opacity="1"><g transform="translate(83.843014, 200.368259)"><g><path d="M 13.5625 -5.734375 L 5.5625 -5.734375 L 3.484375 0 L 1.015625 0 L 8.40625 -19.671875 L 10.703125 -19.671875 L 18.15625 0 L 15.671875 0 Z M 12.859375 -7.671875 L 9.578125 -16.578125 L 9.46875 -16.578125 L 6.265625 -7.671875 Z M 12.859375 -7.671875 "/></g></g></g><g fill="#ffffff" fill-opacity="1"><g transform="translate(105.070898, 200.368259)"><g><path d="M 15.25 -17.46875 L 9.46875 -17.46875 L 9.46875 0 L 7.046875 0 L 7.046875 -17.46875 L 1.265625 -17.46875 L 1.265625 -19.671875 L 15.25 -19.671875 Z M 15.25 -17.46875 "/></g></g></g><g fill="#ffffff" fill-opacity="1"><g transform="translate(123.743684, 200.368259)"><g><path d="M 8.03125 -7.84375 L 4.515625 -7.84375 L 4.515625 0 L 2.109375 0 L 2.109375 -19.671875 L 8.796875 -19.671875 C 10.390625 -19.671875 11.695312 -19.378906 12.71875 -18.796875 C 13.738281 -18.210938 14.472656 -17.472656 14.921875 -16.578125 C 15.367188 -15.679688 15.59375 -14.734375 15.59375 -13.734375 C 15.59375 -12.367188 15.179688 -11.140625 14.359375 -10.046875 C 13.546875 -8.960938 12.28125 -8.273438 10.5625 -7.984375 L 15.765625 0 L 13.09375 0 Z M 4.515625 -9.921875 L 8.484375 -9.921875 C 9.816406 -9.921875 10.941406 -10.207031 11.859375 -10.78125 C 12.773438 -11.363281 13.234375 -12.347656 13.234375 -13.734375 C 13.234375 -15.097656 12.773438 -16.0625 11.859375 -16.625 C 10.941406 -17.1875 9.816406 -17.46875 8.484375 -17.46875 L 4.515625 -17.46875 Z M 4.515625 -9.921875 "/></g></g></g><g fill="#ffffff" fill-opacity="1"><g transform="translate(142.865719, 200.368259)"><g><path d="M 10.34375 0.203125 C 8.46875 0.203125 6.859375 -0.226562 5.515625 -1.09375 C 4.179688 -1.957031 3.164062 -3.15625 2.46875 -4.6875 C 1.78125 -6.226562 1.4375 -7.972656 1.4375 -9.921875 C 1.4375 -11.867188 1.785156 -13.613281 2.484375 -15.15625 C 3.191406 -16.695312 4.210938 -17.90625 5.546875 -18.78125 C 6.890625 -19.65625 8.488281 -20.09375 10.34375 -20.09375 C 12.175781 -20.09375 13.753906 -19.65625 15.078125 -18.78125 C 16.410156 -17.90625 17.421875 -16.695312 18.109375 -15.15625 C 18.804688 -13.625 19.15625 -11.867188 19.15625 -9.890625 C 19.15625 -7.921875 18.804688 -6.175781 18.109375 -4.65625 C 17.421875 -3.144531 16.410156 -1.957031 15.078125 -1.09375 C 13.753906 -0.226562 12.175781 0.203125 10.34375 0.203125 Z M 10.3125 -2.046875 C 11.601562 -2.046875 12.722656 -2.378906 13.671875 -3.046875 C 14.628906 -3.710938 15.359375 -4.644531 15.859375 -5.84375 C 16.367188 -7.039062 16.625 -8.40625 16.625 -9.9375 C 16.625 -11.476562 16.367188 -12.847656 15.859375 -14.046875 C 15.359375 -15.242188 14.628906 -16.179688 13.671875 -16.859375 C 12.722656 -17.535156 11.601562 -17.875 10.3125 -17.875 C 9.019531 -17.875 7.894531 -17.53125 6.9375 -16.84375 C 5.976562 -16.15625 5.242188 -15.210938 4.734375 -14.015625 C 4.234375 -12.816406 3.984375 -11.457031 3.984375 -9.9375 C 3.984375 -8.40625 4.234375 -7.046875 4.734375 -5.859375 C 5.242188 -4.671875 5.976562 -3.738281 6.9375 -3.0625 C 7.894531 -2.382812 9.019531 -2.046875 10.3125 -2.046875 Z M 10.3125 -2.046875 "/></g></g></g><g fill="#ffffff" fill-opacity="1"><g transform="translate(165.637903, 200.368259)"><g><path d="M 2.109375 -19.671875 L 4.828125 -19.671875 L 15.375 -3.875 L 15.484375 -3.875 L 15.484375 -19.671875 L 17.875 -19.671875 L 17.875 0 L 15.109375 0 L 4.609375 -15.5625 L 4.5 -15.5625 L 4.5 0 L 2.109375 0 Z M 2.109375 -19.671875 "/></g></g></g><g fill="#000000" fill-opacity="1"><g transform="translate(199.016519, 200.368259)"><g><path d="M 12.640625 -4.546875 L 6.34375 -4.546875 L 4.9375 0 L 0.5 0 L 7.5 -19.671875 L 11.578125 -19.671875 L 18.515625 0 L 14.078125 0 Z M 11.578125 -7.890625 L 9.546875 -14.25 L 9.390625 -14.25 L 7.421875 -7.890625 Z M 11.578125 -7.890625 "/></g></g></g><g fill="#000000" fill-opacity="1"><g transform="translate(217.913071, 200.368259)"><g><path d="M 10.078125 0.25 C 8.191406 0.25 6.566406 -0.210938 5.203125 -1.140625 C 3.847656 -2.066406 2.816406 -3.304688 2.109375 -4.859375 C 1.410156 -6.410156 1.0625 -8.097656 1.0625 -9.921875 C 1.0625 -11.734375 1.410156 -13.410156 2.109375 -14.953125 C 2.816406 -16.503906 3.847656 -17.742188 5.203125 -18.671875 C 6.566406 -19.597656 8.191406 -20.0625 10.078125 -20.0625 C 12.390625 -20.0625 14.273438 -19.382812 15.734375 -18.03125 C 17.191406 -16.6875 18.132812 -14.945312 18.5625 -12.8125 L 14.328125 -12.8125 C 14.097656 -13.78125 13.613281 -14.59375 12.875 -15.25 C 12.132812 -15.90625 11.222656 -16.234375 10.140625 -16.234375 C 8.640625 -16.234375 7.507812 -15.644531 6.75 -14.46875 C 6 -13.300781 5.625 -11.785156 5.625 -9.921875 C 5.625 -8.003906 6 -6.460938 6.75 -5.296875 C 7.507812 -4.140625 8.640625 -3.5625 10.140625 -3.5625 C 11.210938 -3.5625 12.109375 -3.878906 12.828125 -4.515625 C 13.546875 -5.160156 14.023438 -5.921875 14.265625 -6.796875 L 18.453125 -6.796875 C 18.046875 -4.734375 17.113281 -3.039062 15.65625 -1.71875 C 14.207031 -0.40625 12.347656 0.25 10.078125 0.25 Z M 10.078125 0.25 "/></g></g></g><g fill="#000000" fill-opacity="1"><g transform="translate(237.42734, 200.368259)"><g><path d="M 10.078125 0.25 C 8.191406 0.25 6.566406 -0.210938 5.203125 -1.140625 C 3.847656 -2.066406 2.816406 -3.304688 2.109375 -4.859375 C 1.410156 -6.410156 1.0625 -8.097656 1.0625 -9.921875 C 1.0625 -11.734375 1.410156 -13.410156 2.109375 -14.953125 C 2.816406 -16.503906 3.847656 -17.742188 5.203125 -18.671875 C 6.566406 -19.597656 8.191406 -20.0625 10.078125 -20.0625 C 12.390625 -20.0625 14.273438 -19.382812 15.734375 -18.03125 C 17.191406 -16.6875 18.132812 -14.945312 18.5625 -12.8125 L 14.328125 -12.8125 C 14.097656 -13.78125 13.613281 -14.59375 12.875 -15.25 C 12.132812 -15.90625 11.222656 -16.234375 10.140625 -16.234375 C 8.640625 -16.234375 7.507812 -15.644531 6.75 -14.46875 C 6 -13.300781 5.625 -11.785156 5.625 -9.921875 C 5.625 -8.003906 6 -6.460938 6.75 -5.296875 C 7.507812 -4.140625 8.640625 -3.5625 10.140625 -3.5625 C 11.210938 -3.5625 12.109375 -3.878906 12.828125 -4.515625 C 13.546875 -5.160156 14.023438 -5.921875 14.265625 -6.796875 L 18.453125 -6.796875 C 18.046875 -4.734375 17.113281 -3.039062 15.65625 -1.71875 C 14.207031 -0.40625 12.347656 0.25 10.078125 0.25 Z M 10.078125 0.25 "/></g></g></g><g fill="#000000" fill-opacity="1"><g transform="translate(256.94161, 200.368259)"><g><path d="M 5.875 -15.84375 L 5.875 -11.65625 L 13.34375 -11.65625 L 13.34375 -8.265625 L 5.875 -8.265625 L 5.875 -3.828125 L 14.75 -3.828125 L 14.75 0 L 1.453125 0 L 1.453125 -19.671875 L 14.75 -19.671875 L 14.75 -15.84375 Z M 5.875 -15.84375 "/></g></g></g><g fill="#000000" fill-opacity="1"><g transform="translate(272.833801, 200.368259)"><g><path d="M 8.734375 0.25 C 7.160156 0.25 5.796875 -0.0546875 4.640625 -0.671875 C 3.492188 -1.285156 2.625 -2.09375 2.03125 -3.09375 C 1.445312 -4.101562 1.15625 -5.148438 1.15625 -6.234375 L 1.15625 -6.46875 L 5.953125 -6.46875 L 5.953125 -6.265625 C 5.953125 -5.585938 6.195312 -4.96875 6.6875 -4.40625 C 7.175781 -3.84375 7.890625 -3.5625 8.828125 -3.5625 C 9.628906 -3.5625 10.269531 -3.765625 10.75 -4.171875 C 11.238281 -4.585938 11.484375 -5.132812 11.484375 -5.8125 C 11.484375 -6.414062 11.269531 -6.898438 10.84375 -7.265625 C 10.414062 -7.628906 9.890625 -7.875 9.265625 -8 L 7.03125 -8.453125 C 5.71875 -8.753906 4.488281 -9.316406 3.34375 -10.140625 C 2.195312 -10.960938 1.625 -12.3125 1.625 -14.1875 C 1.625 -15.40625 1.921875 -16.453125 2.515625 -17.328125 C 3.109375 -18.210938 3.925781 -18.890625 4.96875 -19.359375 C 6.019531 -19.828125 7.210938 -20.0625 8.546875 -20.0625 C 10.054688 -20.0625 11.363281 -19.769531 12.46875 -19.1875 C 13.570312 -18.601562 14.40625 -17.847656 14.96875 -16.921875 C 15.53125 -15.992188 15.8125 -15.023438 15.8125 -14.015625 L 15.8125 -13.875 L 11.015625 -13.875 L 11.015625 -13.96875 C 11.015625 -14.5625 10.800781 -15.113281 10.375 -15.625 C 9.957031 -16.144531 9.289062 -16.40625 8.375 -16.40625 C 7.65625 -16.40625 7.085938 -16.207031 6.671875 -15.8125 C 6.253906 -15.425781 6.046875 -14.910156 6.046875 -14.265625 C 6.046875 -13.648438 6.273438 -13.164062 6.734375 -12.8125 C 7.203125 -12.457031 7.765625 -12.210938 8.421875 -12.078125 L 10.703125 -11.578125 C 12.179688 -11.253906 13.441406 -10.648438 14.484375 -9.765625 C 15.535156 -8.890625 16.0625 -7.609375 16.0625 -5.921875 C 16.0625 -4.691406 15.742188 -3.609375 15.109375 -2.671875 C 14.472656 -1.734375 13.597656 -1.007812 12.484375 -0.5 C 11.367188 0 10.117188 0.25 8.734375 0.25 Z M 8.734375 0.25 "/></g></g></g><g fill="#000000" fill-opacity="1"><g transform="translate(289.821044, 200.368259)"><g><path d="M 8.734375 0.25 C 7.160156 0.25 5.796875 -0.0546875 4.640625 -0.671875 C 3.492188 -1.285156 2.625 -2.09375 2.03125 -3.09375 C 1.445312 -4.101562 1.15625 -5.148438 1.15625 -6.234375 L 1.15625 -6.46875 L 5.953125 -6.46875 L 5.953125 -6.265625 C 5.953125 -5.585938 6.195312 -4.96875 6.6875 -4.40625 C 7.175781 -3.84375 7.890625 -3.5625 8.828125 -3.5625 C 9.628906 -3.5625 10.269531 -3.765625 10.75 -4.171875 C 11.238281 -4.585938 11.484375 -5.132812 11.484375 -5.8125 C 11.484375 -6.414062 11.269531 -6.898438 10.84375 -7.265625 C 10.414062 -7.628906 9.890625 -7.875 9.265625 -8 L 7.03125 -8.453125 C 5.71875 -8.753906 4.488281 -9.316406 3.34375 -10.140625 C 2.195312 -10.960938 1.625 -12.3125 1.625 -14.1875 C 1.625 -15.40625 1.921875 -16.453125 2.515625 -17.328125 C 3.109375 -18.210938 3.925781 -18.890625 4.96875 -19.359375 C 6.019531 -19.828125 7.210938 -20.0625 8.546875 -20.0625 C 10.054688 -20.0625 11.363281 -19.769531 12.46875 -19.1875 C 13.570312 -18.601562 14.40625 -17.847656 14.96875 -16.921875 C 15.53125 -15.992188 15.8125 -15.023438 15.8125 -14.015625 L 15.8125 -13.875 L 11.015625 -13.875 L 11.015625 -13.96875 C 11.015625 -14.5625 10.800781 -15.113281 10.375 -15.625 C 9.957031 -16.144531 9.289062 -16.40625 8.375 -16.40625 C 7.65625 -16.40625 7.085938 -16.207031 6.671875 -15.8125 C 6.253906 -15.425781 6.046875 -14.910156 6.046875 -14.265625 C 6.046875 -13.648438 6.273438 -13.164062 6.734375 -12.8125 C 7.203125 -12.457031 7.765625 -12.210938 8.421875 -12.078125 L 10.703125 -11.578125 C 12.179688 -11.253906 13.441406 -10.648438 14.484375 -9.765625 C 15.535156 -8.890625 16.0625 -7.609375 16.0625 -5.921875 C 16.0625 -4.691406 15.742188 -3.609375 15.109375 -2.671875 C 14.472656 -1.734375 13.597656 -1.007812 12.484375 -0.5 C 11.367188 0 10.117188 0.25 8.734375 0.25 Z M 8.734375 0.25 "/></g></g></g></svg>